#!OML:ASF F:\VICON\USERDATA\INSTALL\rory3\rory3.ASF
:FULLY-SPECIFIED
:DEGREES
822
root -2.87069 16.7064 10.8375 -530.972 -24.5923 -536.59
lowerback -3.74946 3.03669 0.387984
upperback -5.15648 3.80578 1.10498
thorax -3.26035 1.79541 0.957053
lowerneck -8.95279 -3.41249 -4.7102
upperneck 33.515 -9.48627 6.98166
head 13.3109 -4.96429 1.99175
rclavicle -1.56357e-014 6.55989e-015
rhumerus 364.76 58.3176 -408.875
rradius 110.606
rwrist -62.5738
rhand 22.2661 3.91009
rfingers 7.12502
rthumb 46.64 -18.9131
lclavicle -1.56357e-014 6.55989e-015
lhumerus -25.2153 -59.8545 50.1276
lradius 115.292
lwrist 63.3121
lhand 31.765 26.7181
lfingers 7.12502
lthumb 55.2863 44.6476
rfemur -38.8467 0.374432 25.184
rtibia 71.1323
rfoot 7.63861 -25.5263
rtoes 24.5032
lfemur -28.028 16.2678 -19.9202
ltibia 49.8753
lfoot -35.108 22.1846
ltoes -5.12088
823
root -2.94857 16.6069 10.8964 -530.493 -22.2607 -536.485
lowerback -3.75234 3.32114 0.910382
upperback -5.34675 4.15542 0.995389
thorax -3.41633 1.93827 0.553039
lowerneck -8.87026 -3.03839 -4.26758
upperneck 33.4173 -8.92714 6.70266
head 13.1648 -4.70999 1.88854
rclavicle -6.66752e-014 -2.05245e-014
rhumerus 361.387 56.4461 -412.336
rradius 110.863
rwrist -64.1303
rhand 23.4468 3.24722
rfingers 7.12502
rthumb 47.7315 -19.0899
lclavicle -6.66752e-014 -2.05245e-014
lhumerus -26.3291 -57.6691 51.6842
lradius 115.248
lwrist 63.8812
lhand 32.0284 27.0598
lfingers 7.12502
lthumb 55.5207 44.815
rfemur -42.4799 0.84985 25.1642
rtibia 74.3515
rfoot 9.97671 -26.6536
rtoes 24.8056
lfemur -28.5968 17.5693 -20.5594
ltibia 50.3965
lfoot -36.4889 22.2167
ltoes -5.70981
824
root -3.00989 16.533 10.922 -530.401 -20.7311 -536.698
lowerback -3.60298 3.19376 0.854899
upperback -5.06561 4.0069 1.0349
thorax -3.21299 1.87706 0.622781
lowerneck -9.35189 -2.72869 -4.06287
upperneck 33.1952 -8.25637 6.34301
head 13.0906 -4.39623 1.80112
rclavicle 3.52284e-014 6.75868e-015
rhumerus 359.827 54.2949 -414.16
rradius 111.021
rwrist -66.4367
rhand 23.1505 2.13987
rfingers 7.12502
rthumb 47.4579 -20.322
lclavicle 3.52284e-014 6.75868e-015
lhumerus -26.6262 -54.8193 52.6932
lradius 115.098
lwrist 64.4509
lhand 30.7935 23.828
lfingers 7.12502
lthumb 54.4189 42.3788
rfemur -45.0653 0.858108 25.1652
rtibia 77.0722
rfoot 12.2774 -27.3123
rtoes 27.0309
lfemur -28.3955 18.5198 -21.1489
ltibia 50.6264
lfoot -37.8178 21.9755
ltoes -5.81109
825
root -3.07032 16.467 10.9377 -530.242 -19.3908 -537.303
lowerback -3.40269 2.93931 0.459836
upperback -4.85243 3.69158 0.976857
thorax -3.12275 1.74089 0.775041
lowerneck -9.59607 -2.32976 -4.01465
upperneck 32.9978 -7.53477 6.17684
head 12.9935 -4.07597 1.82842
rclavicle 4.70095e-015 -1.17283e-014
rhumerus 358.097 52.8141 -416.253
rradius 111.003
rwrist -67.5639
rhand 22.4046 2.45509
rfingers 7.12502
rthumb 46.7682 -20.3126
lclavicle 4.70095e-015 -1.17283e-014
lhumerus -27.4553 -51.9214 53.914
lradius 115.034
lwrist 64.9865
lhand 31.5965 24.3706
lfingers 7.12502
lthumb 55.1362 42.4102
rfemur -47.4123 0.59896 24.8213
rtibia 79.446
rfoot 13.9031 -26.7873
rtoes 30.7079
lfemur -28.0986 19.3346 -22.1535
ltibia 50.7261
lfoot -39.2569 21.8335
ltoes -5.35453
826
root -3.12593 16.4085 10.9546 -530.047 -18.0565 -537.909
lowerback -3.09873 2.73735 0.110094
upperback -4.78572 3.43623 0.784738
thorax -3.22966 1.62636 0.757548
lowerneck -9.63127 -1.9073 -3.6899
upperneck 32.68 -6.83042 5.98483
head 12.7947 -3.73962 1.79782
rclavicle 9.85413e-014 1.39149e-014
rhumerus 355.72 51.5373 -418.999
rradius 111.098
rwrist -68.5947
rhand 21.8829 2.89108
rfingers 7.12502
rthumb 46.2849 -20.0839
lclavicle 9.85413e-014 1.39149e-014
lhumerus -28.2235 -49.4115 55.0072
lradius 114.871
lwrist 65.4291
lhand 32.1362 24.5864
lfingers 7.12502
lthumb 55.6165 42.2695
rfemur -49.6737 0.356487 24.5138
rtibia 81.401
rfoot 14.4711 -24.9728
rtoes 32.4684
lfemur -27.8884 20.3239 -23.2505
ltibia 50.5898
lfoot -40.6 22.1371
ltoes -5.48252
827
root -3.17362 16.3372 10.9852 -529.742 -16.7188 -538.448
lowerback -2.7596 2.61395 -0.282958
upperback -4.78364 3.27869 0.633491
thorax -3.42952 1.56072 0.804801
lowerneck -9.67946 -1.57788 -3.41589
upperneck 32.3873 -6.25897 5.78163
head 12.6259 -3.46746 1.75155
rclavicle -1.54633e-014 9.44227e-015
rhumerus 353.22 49.9399 -421.619
rradius 111.286
rwrist -70.4365
rhand 22.0532 2.86833
rfingers 7.12502
rthumb 46.4427 -20.0395
lclavicle -1.54633e-014 9.44227e-015
lhumerus -28.5297 -47.1047 56.0307
lradius 114.565
lwrist 65.9254
lhand 32.0262 24.2944
lfingers 7.12502
lthumb 55.5188 42.0511
rfemur -52.1318 0.176089 24.351
rtibia 83.0817
rfoot 14.8992 -22.0442
rtoes 31.2493
lfemur -27.9892 21.3299 -24.3579
ltibia 50.471
lfoot -41.8616 22.2479
ltoes -4.73647
